<svg width="50" height="50" viewBox="0 0 50 50" fill="none" xmlns="http://www.w3.org/2000/svg">
<path fill-rule="evenodd" clip-rule="evenodd" d="M4.74196 0.665693C3.65718 -0.221898 1.8984 -0.221898 0.813625 0.665693C-0.271208 1.55324 -0.271208 2.99224 0.813625 3.87978L23.0358 22.0616C24.1206 22.9492 25.8794 22.9492 26.9642 22.0616L49.1867 3.87978C50.2711 2.99224 50.2711 1.55324 49.1867 0.665693C48.1017 -0.221898 46.3428 -0.221898 45.2578 0.665693L25 17.2404L4.74196 0.665693ZM4.74196 27.9384C3.65718 27.0508 1.8984 27.0508 0.813625 27.9384C-0.271208 28.826 -0.271208 30.265 0.813625 31.1525L23.0358 49.3345C24.1206 50.2218 25.8794 50.2218 26.9642 49.3345L49.1867 31.1525C50.2711 30.265 50.2711 28.826 49.1867 27.9384C48.1017 27.0508 46.3428 27.0508 45.2578 27.9384L25 44.5132L4.74196 27.9384Z" fill="#CACACA"/>
</svg>
