<svg width="311" height="442" viewBox="0 0 311 442" fill="none" xmlns="http://www.w3.org/2000/svg">
<g filter="url(#filter0_b_667_154)">
<rect width="310.143" height="441.24" rx="40" fill="#D0EE1A"/>
<rect x="0.75" y="0.75" width="308.643" height="439.74" rx="39.25" stroke="url(#paint0_linear_667_154)" stroke-width="1.5"/>
</g>
<path d="M111.129 172.682C98.0473 172.682 88.6233 162.08 89.3053 149.37C89.8633 137.466 99.2873 127.856 111.253 127.794C117.143 127.732 120.677 130.212 123.653 130.15C124.955 130.15 126.381 129.654 126.815 128.29L127.683 128.228L128.923 145.464L128.055 145.588C126.195 137.466 119.313 128.848 111.191 128.848C103.875 128.91 97.5513 135.916 97.7373 146.332C97.9853 157.616 105.921 165.738 116.027 165.49C123.033 165.366 127.931 161.026 130.039 155.508L130.783 155.694C129.171 165.428 121.669 172.682 111.129 172.682ZM156.361 172.558C152.083 172.558 149.975 169.706 149.355 165.366C148.549 168.838 145.263 172.62 139.993 172.62C134.971 172.62 131.251 169.334 131.251 164.746C131.251 160.84 134.041 157.678 139.187 157.244L148.177 156.438L147.681 152.656C146.937 147.634 144.457 144.782 140.489 144.782C137.017 144.782 134.537 146.89 133.235 149.99L132.367 149.804C133.607 144.844 138.443 139.698 145.325 139.698C151.835 139.698 155.927 143.914 156.919 151.23L158.531 164.064C158.841 166.668 159.895 167.412 160.763 167.412C161.569 167.412 162.189 166.73 162.437 165.738L163.181 165.862C163.057 168.838 160.701 172.558 156.361 172.558ZM139.745 162.824C139.745 165.428 141.605 167.784 144.581 167.784C147.185 167.784 148.983 165.924 149.231 164.188L148.301 157.43L144.581 157.802C141.481 158.05 139.745 160.034 139.745 162.824ZM162.776 172V171.132C164.946 171.132 166.558 169.83 166.558 165.738L166.62 147.634C166.62 144.782 165.752 143.418 162.962 143.356V142.488C166.868 142.178 171.642 141.31 175.3 139.698L175.982 140.07V146.332C176.974 143.108 179.64 139.698 183.608 139.698C186.894 139.698 188.754 142.24 188.754 144.844C188.754 147.324 187.018 149.742 184.042 149.742C181.19 149.742 180.446 147.51 179.888 146.084C179.516 145.092 179.268 144.782 178.648 144.782C177.346 144.782 176.168 146.642 175.982 149.06V165.738C175.982 169.83 178.09 171.132 180.88 171.132V172H162.776ZM200.88 172.62C193.688 172.62 188.48 165.552 188.48 156.686C188.48 147.324 194.68 139.884 203.298 139.884C206.398 139.884 208.444 141.062 210.118 142.488V133.746C210.118 130.894 209.25 129.53 206.46 129.468V128.6C210.366 128.29 215.202 127.422 218.86 125.81L219.48 126.12V165.614C219.48 168.404 220.472 169.272 222.89 169.334V170.202C219.418 170.574 214.458 171.442 210.8 172.868L210.118 172.496V166.42C209.374 168.714 206.336 172.62 200.88 172.62ZM198.276 153.648C198.276 163.94 202.306 167.722 205.84 167.722C207.886 167.722 209.374 166.358 210.118 164.684V153.834C210.118 147.324 208.444 141.124 204.414 141.124C200.446 141.124 198.276 146.828 198.276 153.648Z" fill="#9573F3"/>
<defs>
<filter id="filter0_b_667_154" x="-17" y="-17" width="344.143" height="475.24" filterUnits="userSpaceOnUse" color-interpolation-filters="sRGB">
<feFlood flood-opacity="0" result="BackgroundImageFix"/>
<feGaussianBlur in="BackgroundImageFix" stdDeviation="8.5"/>
<feComposite in2="SourceAlpha" operator="in" result="effect1_backgroundBlur_667_154"/>
<feBlend mode="normal" in="SourceGraphic" in2="effect1_backgroundBlur_667_154" result="shape"/>
</filter>
<linearGradient id="paint0_linear_667_154" x1="39" y1="-3.8448e-06" x2="275.5" y2="441" gradientUnits="userSpaceOnUse">
<stop stop-color="#D0EE1A" stop-opacity="0.2"/>
<stop offset="1" stop-color="#D0EE1A"/>
</linearGradient>
</defs>
</svg>
